PathFileType	4	(X/Y/Z)	C:\Users\Biomechanik\SynologyDrive\AlexP\Athlete_03\Athlete_3_22_07_06\sq_80_EMG\marker_experimental.trc																																																																																																																																																																												
DataRate	CameraRate	NumFrames	NumMarkers	Units	OrigDataRate	OrigDataStartFrame	OrigNumFrames																																																																																																																																																																								
200	200	4	58	mm	200	1052	1403																																																																																																																																																																								
Frame#	Time	BL			BR			GLAB			RFHD			LFHD			C7			T6			SPINMOL			SPINM2			SPINM3			T12			BELTOL			BELT2			BELT3			SACROL			SACR2			SACR3			LTHOL			LTH2			LTH3			LSHAOL			LSHA2			LSHA3			LHEE			LTOE			LM5			RTHOL			RTH2			RTH3			RSHAOL			RSHA2			RSHA3			RHEE			RTOE			RM5			STRN			XIPH			LACR			LUAOL			LUA2			LUA3			LLAOL			LLA2			LLA3			LWRU			RACR			RUAOL			RUA3			RLAOL			RLA2			RLA3			RWRU			USERMO0			USERMO1			USERMO2			USERMO3			USERMO4			USERMO5		
		X1	Y1	Z1	X2	Y2	Z2	X3	Y3	Z3	X4	Y4	Z4	X5	Y5	Z5	X6	Y6	Z6	X7	Y7	Z7	X8	Y8	Z8	X9	Y9	Z9	X10	Y10	Z10	X11	Y11	Z11	X12	Y12	Z12	X13	Y13	Z13	X14	Y14	Z14	X15	Y15	Z15	X16	Y16	Z16	X17	Y17	Z17	X18	Y18	Z18	X19	Y19	Z19	X20	Y20	Z20	X21	Y21	Z21	X22	Y22	Z22	X23	Y23	Z23	X24	Y24	Z24	X25	Y25	Z25	X26	Y26	Z26	X27	Y27	Z27	X28	Y28	Z28	X29	Y29	Z29	X30	Y30	Z30	X31	Y31	Z31	X32	Y32	Z32	X33	Y33	Z33	X34	Y34	Z34	X35	Y35	Z35	X36	Y36	Z36	X37	Y37	Z37	X38	Y38	Z38	X39	Y39	Z39	X40	Y40	Z40	X41	Y41	Z41	X42	Y42	Z42	X43	Y43	Z43	X44	Y44	Z44	X45	Y45	Z45	X46	Y46	Z46	X47	Y47	Z47	X48	Y48	Z48	X49	Y49	Z49	X50	Y50	Z50	X51	Y51	Z51	X52	Y52	Z52	X53	Y53	Z53	X54	Y54	Z54	X55	Y55	Z55	X56	Y56	Z56	X57	Y57	Z57	X58	Y58	Z58
																																																																																																																																																																															
1053	5.26	174.0010376	978.1136475	-2286.824951	307.4409485	943.9083252	-69.08597565	585.6303711	1100.437866	-1165.667236	523.6526489	1122.179565	-1090.617676	527.5862427	1117.52002	-1249.239258	344.447937	1047.3479	-1162.665405	180.8656769	956.1015625	-1165.369263	159.0307312	941.7921753	-1174.572144	107.7772369	907.0957031	-1124.439209	115.7891235	897.5032349	-1172.695313	90.45661163	871.5377197	-1170.17041	53.76108551	880.5686646	-1169.027222	6.298203468	843.8787231	-1116.202271	1.662484527	846.5177002	-1166.118042	-62.82756805	786.1602783	-1192.878052	-49.24621201	790.4507446	-1143.757446	-103.0053482	752.694397	-1152.576172	65.47063446	626.9019775	-1443.684204	73.04062653	550.6361694	-1466.977905	106.7015991	588.4341431	-1469.408447	205.428421	320.2481384	-1577.939697	160.5868988	255.4059448	-1572.756226	209.3761749	258.3999329	-1582.3302	118.3367157	42.00117493	-1510.447632	322.8640442	48.38514328	-1553.183472	265.066925	24.16782951	-1650.797974	79.15079498	596.5675659	-892.9958496	153.0186157	595.8742676	-863.1411133	119.3136902	558.864563	-863.6321411	171.9088593	316.8215942	-771.1483154	200.7268829	244.3487244	-756.7266235	155.4605408	257.2888489	-774.2741089	92.66643524	41.85073853	-845.4660645	284.2580872	45.15433121	-767.1848145	216.3791504	37.22296906	-682.3969727	404.6116638	883.7141724	-1181.815918	333.2753601	734.6744995	-1180.735107	298.4716187	997.8893433	-1358.513794	149.4821625	938.0214233	-1397.905273	103.1470642	909.3626709	-1360.149902	107.3443985	901.5856323	-1409.511963	88.1213913	870.4969482	-1483.92627	137.5838165	877.8585205	-1525.616821	137.8276978	910.4610596	-1487.644409	195.7670746	944.3651123	-1534.922241	326.4353333	981.1812744	-983.7529907	188.7493286	897.6390381	-929.774231	128.1867676	884.8279419	-928.3771362	142.0942535	870.4605103	-850.6466064	193.4726563	907.6123657	-864.9612427	191.1788177	892.2623291	-816.4258423	231.5520325	927.0227661	-802.3075562	0.405829012	0.063428998	-0.496026009	0.059225701	0.106320001	-0.231616005	0.101441003	0.0239798	-0.150946006	0.025544301	0.158957005	-0.829689026	0.367164999	2.714790106	-0.362603009	2.871979952	0	0
1054	5.265	173.8097839	979.5236816	-2286.853516	307.0900574	945.3565674	-69.1108551	585.263916	1102.810425	-1165.86499	523.2442627	1124.470459	-1090.818848	527.1827393	1119.732544	-1249.442749	344.1388855	1049.134399	-1162.807007	180.791748	957.5254517	-1165.491943	159.0017395	943.1743164	-1174.712158	107.8384552	908.3037109	-1124.609863	115.89048	898.7589111	-1172.868774	90.61029053	872.7080078	-1170.366455	53.84967041	881.6428833	-1169.231689	6.446086407	844.8591309	-1116.417847	1.825836182	847.4829102	-1166.335449	-62.47313309	787.0830078	-1193.148804	-48.92695618	791.3912964	-1144.012695	-102.6189346	753.5415649	-1152.86853	66.00209808	627.4205933	-1443.992188	73.40284729	551.1010742	-1467.214478	107.1355286	588.8572388	-1469.719849	205.5093689	320.2331543	-1578.113403	160.658844	255.4055023	-1572.881348	209.4379272	258.3859253	-1582.47876	118.350769	42.01693344	-1510.446411	322.8676147	48.38373184	-1553.192627	265.0690002	24.15983391	-1650.815796	79.39702606	597.1025391	-893.12146	153.2373352	596.2172852	-863.1690674	119.4456711	559.2788696	-863.7479248	171.806076	316.8670959	-771.1165771	200.6592102	244.4025574	-756.6928711	155.388504	257.3257446	-774.2373657	92.66053772	41.85421371	-845.4416504	284.2546997	45.15893173	-767.1734619	216.3748779	37.21380234	-682.3822632	404.7241211	885.68927	-1181.938843	333.706665	736.4931641	-1180.869385	298.2223206	999.5961304	-1358.593262	149.4094696	939.3021851	-1397.987549	103.1863861	910.4897461	-1360.216309	107.3914337	902.7314453	-1409.588013	88.24642181	871.6238403	-1483.97876	137.6522064	879.147522	-1525.693359	137.8317413	911.7265015	-1487.703125	195.6532593	945.8302612	-1534.97998	326.1971436	982.9299927	-983.885376	188.7716217	898.9987183	-929.9642944	128.2262878	886.027832	-928.5653076	142.08638	871.727417	-850.8786011	193.4010773	908.9924927	-865.1195679	191.0715179	893.6464844	-816.5812988	231.3346405	928.4865723	-802.387146	0.403553009	0.063792497	-0.506889999	0.05773	0.107501999	-0.231214002	0.101309001	0.023438901	-0.148885995	0.0244551	0.159101993	-0.83060497	0.369006008	2.703259945	-0.363083005	2.864249945	0	0
1055	5.27	173.6215668	980.9204102	-2286.878906	306.7376099	946.7927856	-69.1326828	584.9031372	1105.178223	-1166.062012	522.8430176	1126.751709	-1091.017334	526.7825928	1121.945679	-1249.6427	343.8389282	1050.921021	-1162.948486	180.7196045	958.9541626	-1165.61731	158.9765015	944.5617065	-1174.855591	107.9025955	909.5163574	-1124.786011	115.9957809	900.0200806	-1173.047363	90.76834869	873.8842163	-1170.569092	53.9410553	882.722229	-1169.442993	6.595578671	845.8452148	-1116.641602	1.991909385	848.4534912	-1166.561157	-62.11392975	788.0164795	-1193.430786	-48.60468674	792.3421631	-1144.280273	-102.22966	754.4014282	-1153.17395	66.53923035	627.9428101	-1444.304688	73.77014923	551.5699463	-1467.453735	107.576828	589.2825928	-1470.031982	205.5908966	320.2188416	-1578.284424	160.7302399	255.4062347	-1573.003296	209.4992828	258.3724365	-1582.624756	118.3638382	42.03187561	-1510.445435	322.870697	48.38245392	-1553.201416	265.069397	24.15192604	-1650.83374	79.6344986	597.6488037	-893.2502441	153.4468994	596.5704956	-863.1975098	119.5626068	559.7058105	-863.862793	171.6860199	316.9144592	-771.0942383	200.5722046	244.4603882	-756.6629028	155.2981415	257.3658752	-774.208252	92.6498642	41.85338974	-845.4155273	284.2490234	45.16575623	-767.161499	216.3691864	37.20360184	-682.3674316	404.8378906	887.6627808	-1182.06311	334.133606	738.3120117	-1181.01001	297.9753723	1001.305664	-1358.67041	149.3424988	940.5858765	-1398.071533	103.2268372	911.62323	-1360.286499	107.4443741	903.8807373	-1409.665283	88.37631226	872.7542725	-1484.030029	137.7271423	880.4388428	-1525.767578	137.8419037	912.9940186	-1487.758911	195.5440979	947.296936	-1535.034546	325.9625244	984.6726074	-984.0163574	188.7916107	900.3650513	-930.1604614	128.2648468	887.2385254	-928.762146	142.0793457	873.0040894	-851.1187744	193.3286438	910.3803101	-865.2801514	190.9606323	895.0385742	-816.7392578	231.115448	929.9520264	-802.4663696	0.400566012	0.064217798	-0.517161012	0.056312099	0.109362997	-0.231097996	0.101471998	0.0230249	-0.147057995	0.023641599	0.159446999	-0.831453025	0.370573014	2.689640045	-0.363667995	2.855350018	0	0
1056	5.275	173.4376068	982.3057861	-2286.901367	306.384613	948.218689	-69.15175629	584.5469971	1107.539307	-1166.252441	522.4460449	1129.022095	-1091.209351	526.3870239	1124.157471	-1249.835083	343.5461121	1052.707275	-1163.0896	180.6480103	960.3862915	-1165.744629	158.9535522	945.9527588	-1175.001221	107.9680023	910.7324219	-1124.966553	116.1034393	901.2855225	-1173.230225	90.92888641	875.0650635	-1170.776978	54.03374863	883.8054199	-1169.659912	6.745263577	846.8356323	-1116.872192	2.159189224	849.4282227	-1166.793823	-61.75180817	788.9577026	-1193.722778	-48.28142548	793.3006592	-1144.558594	-101.8392715	755.2706909	-1153.490845	67.07991028	628.4682617	-1444.621338	74.14080811	552.0430298	-1467.695557	108.0231247	589.7103882	-1470.344849	205.6711426	320.2054138	-1578.454224	160.7991791	255.4082184	-1573.123047	209.5585175	258.3595886	-1582.769165	118.3756332	42.04578781	-1510.44519	322.8731384	48.38152695	-1553.210083	265.0679932	24.14395332	-1650.851685	79.86252594	598.2045898	-893.3815308	153.6464386	596.9325562	-863.2259521	119.6646042	560.1437988	-863.9763794	171.5501556	316.9632263	-771.0803833	200.4674988	244.5215912	-756.6367798	155.1908417	257.4086914	-774.1861572	92.63455963	41.84828568	-845.3878174	284.2412109	45.17459106	-767.1494141	216.3623505	37.19261932	-682.3527222	404.9515076	889.633728	-1182.187988	334.5546265	740.1299438	-1181.156616	297.7300415	1003.016479	-1358.745483	149.2805023	941.8726196	-1398.156494	103.267662	912.7634277	-1360.360474	107.5018616	905.0341187	-1409.743408	88.50947571	873.8885498	-1484.080322	137.8076477	881.7324829	-1525.839355	137.857132	914.2637329	-1487.81189	195.438858	948.7649536	-1535.086182	325.7305298	986.4078369	-984.1450806	188.8075867	901.7372437	-930.361084	128.3017883	888.4588013	-928.9666138	142.0734863	874.2897339	-851.366272	193.2550049	911.7749634	-865.4422607	190.8459015	896.4379272	-816.8989868	230.894455	931.4190674	-802.5449219	0.396477997	0.064691201	-0.526184022	0.055017699	0.111863002	-0.230885997	0.102090999	0.022729799	-0.145563006	0.023129201	0.159922004	-0.832252979	0.371850997	2.673779964	-0.36432901	2.845210075	0	0
